<svg xmlns="http://www.w3.org/2000/svg" viewBox="0 0 160 118" fill="none">
  <defs>
    <marker id="ra" markerWidth="5" markerHeight="5" refX="4" refY="2.5" orient="auto">
      <path d="M 0,1 L 4,2.5 L 0,4" fill="#EF4444"/>
    </marker>
  </defs>
  <path d="M 30,112 L 30,60 Q 42,14 80,10 Q 118,14 130,60 L 130,112" fill="#F1F5F9" stroke="#1E293B" stroke-width="2" stroke-linejoin="round"/>
  <rect x="23" y="110" width="114" height="8" rx="3" fill="#CBD5E1" stroke="#475569" stroke-width="1.3"/>
  <ellipse cx="44" cy="94" rx="8" ry="11" fill="#FEE2E2" stroke="#EF4444" stroke-width="0.8" opacity="0.7"/>
  <ellipse cx="118" cy="90" rx="7" ry="10" fill="#FEE2E2" stroke="#EF4444" stroke-width="0.8" opacity="0.7"/>
  <ellipse cx="50" cy="92" rx="11" ry="15" fill="#EFF6FF" stroke="#3B82F6" stroke-width="1.2"/>
  <ellipse cx="67" cy="83" rx="9"  ry="13" fill="#EFF6FF" stroke="#3B82F6" stroke-width="1.2"/>
  <ellipse cx="83" cy="79" rx="8"  ry="12" fill="#EFF6FF" stroke="#3B82F6" stroke-width="1.2"/>
  <ellipse cx="99" cy="81" rx="7"  ry="11" fill="#EFF6FF" stroke="#3B82F6" stroke-width="1.2"/>
  <ellipse cx="113" cy="87" rx="6" ry="10" fill="#EFF6FF" stroke="#3B82F6" stroke-width="1.2"/>
  <line x1="26" y1="92" x2="37" y2="92" stroke="#EF4444" stroke-width="1.4" marker-end="url(#ra)"/>
  <line x1="134" y1="88" x2="122" y2="88" stroke="#EF4444" stroke-width="1.4" marker-end="url(#ra)"/>
  <text x="80" y="108" text-anchor="middle" font-size="8" fill="#EF4444" font-family="system-ui,sans-serif" font-weight="600">압박 주의</text>
</svg>
