<svg xmlns="http://www.w3.org/2000/svg" viewBox="0 0 160 118" fill="none">
  <defs>
    <marker id="arr" markerWidth="5" markerHeight="5" refX="2.5" refY="2.5" orient="auto-start-reverse">
      <path d="M 0,1 L 4,2.5 L 0,4" fill="none" stroke="#2563EB" stroke-width="1"/>
    </marker>
  </defs>
  <path d="M 10,112 L 10,50 Q 10,6 80,3 Q 150,6 150,50 L 150,112" fill="#F1F5F9" stroke="#1E293B" stroke-width="2" stroke-linejoin="round"/>
  <rect x="4" y="110" width="152" height="8" rx="3" fill="#CBD5E1" stroke="#475569" stroke-width="1.3"/>
  <path d="M 12,52 Q 12,14 80,10 Q 148,14 148,52 L 148,108 L 116,108 L 116,78 Q 116,44 80,40 Q 44,44 44,78 L 44,108 L 12,108 Z" fill="#DBEAFE" opacity="0.5"/>
  <ellipse cx="53" cy="88" rx="12" ry="16" fill="#EFF6FF" stroke="#3B82F6" stroke-width="1.2"/>
  <ellipse cx="72" cy="78" rx="10" ry="14" fill="#EFF6FF" stroke="#3B82F6" stroke-width="1.2"/>
  <ellipse cx="89" cy="74" rx="9"  ry="13" fill="#EFF6FF" stroke="#3B82F6" stroke-width="1.2"/>
  <ellipse cx="106" cy="76" rx="8" ry="12" fill="#EFF6FF" stroke="#3B82F6" stroke-width="1.2"/>
  <ellipse cx="121" cy="82" rx="7" ry="11" fill="#EFF6FF" stroke="#3B82F6" stroke-width="1.2"/>
  <line x1="14" y1="88" x2="39" y2="88" stroke="#2563EB" stroke-width="1.2" marker-start="url(#arr)" marker-end="url(#arr)"/>
  <line x1="130" y1="82" x2="146" y2="82" stroke="#2563EB" stroke-width="1.2" marker-start="url(#arr)" marker-end="url(#arr)"/>
  <text x="80" y="108" text-anchor="middle" font-size="8" fill="#2563EB" font-family="system-ui,sans-serif" font-weight="600">← 여유 공간 →</text>
</svg>
